<svg xmlns="http://www.w3.org/2000/svg" id="Layer_1" version="1.1" viewBox="0 0 1020.67 1022.8"><defs><style>.st2{fill:#fff}.st2,.st3{fill-rule:evenodd}.st4{display:none}</style></defs><circle cx="510.33" cy="511.4" r="510.33" style="fill:#1447e6"/><path d="M374.8 266.18h271.06c61.03 0 110.86 49.84 110.86 110.87v269.53c0 61.03-49.84 110.86-110.86 110.86H374.8c-61.03 0-110.36-49.84-110.36-110.86V377.05c0-61.03 49.33-110.87 110.36-110.87Zm135.28 139.34h1.02c58.48 0 106.8 48.31 106.8 106.29 0 59.5-48.31 107.81-106.8 107.81h-1.02c-58.48 0-106.8-48.31-106.8-107.81 0-57.98 48.31-106.29 106.8-106.29Zm0-55.43h1.02c87.98 0 161.72 73.74 161.72 161.72 0 89.51-73.74 161.72-161.72 161.72h-1.02c-88.49 0-160.7-72.22-160.7-161.72 0-87.98 72.21-161.72 160.7-161.72Zm160.2-31.02c18.31 0 34.07 15.26 34.07 34.07 0 18.31-15.77 34.07-34.07 34.07-19.83 0-34.07-15.76-34.07-34.07 0-18.82 14.24-34.07 34.07-34.07ZM373.79 215.32h273.6c87.98 0 160.7 72.21 160.7 160.19V648.1c0 87.98-72.72 160.19-160.7 160.19h-273.6c-87.98 0-160.7-72.21-160.7-160.19V375.51c0-87.98 72.72-160.19 160.7-160.19Z" class="st2"/><path d="M1942.52-545.91c54.53 0 103.94 22.24 139.57 57.87 35.83 35.83 57.87 85.24 57.87 139.76s-22.05 103.74-57.87 139.57c-35.63 35.83-85.04 57.87-139.57 57.87s-103.94-22.05-139.57-57.87c-35.83-35.83-57.87-85.04-57.87-139.57s22.05-103.94 57.87-139.76c35.63-35.63 85.04-57.87 139.57-57.87Zm132.68 64.96c-34.06-33.86-80.91-54.92-132.68-54.92s-98.62 21.06-132.48 54.92c-34.06 33.86-54.92 80.91-54.92 132.68s20.87 98.62 54.92 132.48c33.86 33.86 80.71 54.92 132.48 54.92s98.62-21.06 132.68-54.92c33.86-33.86 54.92-80.71 54.92-132.48s-21.06-98.82-54.92-132.68Z"/><path d="M2015.35-417.17c-13.19-8.07-23.23-23.23-25.79-38.39-.39-3.54-.98-6.5-.98-10.04h-39.76v158.66c0 18.5-15.16 33.66-33.66 33.66-6.1 0-11.22-1.38-16.14-3.94-10.63-5.51-18.11-17.13-18.11-29.72 0-18.7 14.96-33.86 34.25-33.86 3.54 0 6.5.59 10.04 1.57v-40.35c-3.54-.39-6.5-.98-10.04-.98-40.94 0-74.02 32.87-74.02 73.62 0 24.61 12.6 46.85 31.69 59.84 12.01 8.07 26.57 13.19 42.32 13.19 40.75 0 73.43-32.87 73.43-73.03v-82.68c15.16 13.58 35.24 20.28 55.51 18.7v-39.76c-10.24 1.97-20.28-.98-28.74-6.5Z" class="st3"/><path d="M1425-545.91c54.53 0 103.94 22.24 139.57 57.87 35.83 35.83 57.87 85.24 57.87 139.76s-22.05 103.74-57.87 139.57c-35.63 35.83-85.04 57.87-139.57 57.87s-103.94-22.05-139.76-57.87c-35.63-35.83-57.68-85.04-57.68-139.57s22.05-103.94 57.68-139.76c35.83-35.63 85.24-57.87 139.76-57.87Zm132.48 64.96c-33.86-33.86-80.71-54.92-132.48-54.92s-98.62 21.06-132.68 54.92c-33.86 33.86-54.92 80.91-54.92 132.68s21.06 98.62 54.92 132.48c34.05 33.86 80.91 54.92 132.68 54.92s98.62-21.06 132.48-54.92c34.06-33.86 54.92-80.71 54.92-132.48s-20.87-98.82-54.92-132.68Z"/><path d="M1507.28-459.49h18.5l-80.51 93.9 87.8 128.35h-63.98l-59.45-86.81-74.41 86.81h-18.31l84.65-98.82-84.45-123.43h63.98l56.1 81.89 70.08-81.89Zm-163.97 14.17h28.94l134.65 193.9h-28.94l-134.65-193.9Z" class="st3"/></svg>