<?xml version="1.0" encoding="UTF-8"?>
<svg id="Layer_1" data-name="Layer 1" xmlns="http://www.w3.org/2000/svg" viewBox="0 0 387.73 1048.36">
  <defs>
    <style>
      .cls-1 {
        fill: #fff;
      }
    </style>
  </defs>
  <path class="cls-1" d="M193.87,0C86.8,0,0,86.8,0,193.87s86.8,193.87,193.87,193.87,193.87-86.8,193.87-193.87S300.93,0,193.87,0ZM193.87,297.5c-57.24,0-103.64-46.4-103.64-103.64s46.4-103.64,103.64-103.64,103.64,46.4,103.64,103.64-46.4,103.64-103.64,103.64Z"/>
  <path class="cls-1" d="M193.87,660.63C86.8,660.63,0,747.43,0,854.49s86.8,193.87,193.87,193.87,193.87-86.8,193.87-193.87-86.8-193.87-193.87-193.87ZM193.87,958.13c-57.24,0-103.64-46.4-103.64-103.64s46.4-103.64,103.64-103.64,103.64,46.4,103.64,103.64-46.4,103.64-103.64,103.64Z"/>
  <rect class="cls-1" x="149.24" y="368.82" width="87.38" height="326.94"/>
</svg>