<svg xmlns="http://www.w3.org/2000/svg" id="Layer_1" version="1.1" viewBox="0 0 1020.67 1022.8"><defs><style>.st2{fill:#fff}.st2,.st3{fill-rule:evenodd}.st4{display:none}</style></defs><circle cx="510.33" cy="511.4" r="510.33" style="fill:#1447e6"/><path d="M698.59 333.57c-34.09-20.86-60.04-60.04-66.65-99.22-1.02-9.16-2.54-16.79-2.54-25.95H526.62v410.1c0 47.83-39.18 87.01-87.01 87.01-15.77 0-29-3.56-41.72-10.18-27.48-14.25-46.81-44.27-46.81-76.83 0-48.34 38.67-87.51 88.53-87.51 9.16 0 16.79 1.53 25.95 4.07V430.75c-9.16-1.02-16.79-2.54-25.95-2.54-105.83 0-191.31 84.97-191.31 190.29 0 63.6 32.56 121.1 81.92 154.68 31.04 20.86 68.69 34.09 109.39 34.09 105.32 0 189.79-84.97 189.79-188.77V404.8c39.18 35.11 91.08 52.41 143.48 48.34V350.36c-26.46 5.09-52.41-2.54-74.29-16.79Z" class="st2"/><path d="M1425-545.91c54.53 0 103.94 22.24 139.57 57.87 35.83 35.83 57.87 85.24 57.87 139.76s-22.05 103.74-57.87 139.57c-35.63 35.83-85.04 57.87-139.57 57.87s-103.94-22.05-139.76-57.87c-35.63-35.83-57.68-85.04-57.68-139.57s22.05-103.94 57.68-139.76c35.83-35.63 85.24-57.87 139.76-57.87Zm132.48 64.96c-33.86-33.86-80.71-54.92-132.48-54.92s-98.62 21.06-132.68 54.92c-33.86 33.86-54.92 80.91-54.92 132.68s21.06 98.62 54.92 132.48c34.05 33.86 80.91 54.92 132.68 54.92s98.62-21.06 132.48-54.92c34.06-33.86 54.92-80.71 54.92-132.48s-20.87-98.82-54.92-132.68Z"/><path d="M1507.28-459.49h18.5l-80.51 93.9 87.8 128.35h-63.98l-59.45-86.81-74.41 86.81h-18.31l84.65-98.82-84.45-123.43h63.98l56.1 81.89 70.08-81.89Zm-163.97 14.17h28.94l134.65 193.9h-28.94l-134.65-193.9Z" class="st3"/></svg>