<svg xmlns="http://www.w3.org/2000/svg" id="Layer_1" version="1.1" viewBox="0 0 1020.67 1022.8"><defs><style>.st2{fill:#fff}.st2,.st3{fill-rule:evenodd}.st4{display:none}</style></defs><circle cx="510.33" cy="511.4" r="510.33" style="fill:#1447e6"/><path d="m324.62 739.85 42.23-7.12 25.44-4.58c35.62 19.33 74.79 30.02 118.04 30.02 135.85 0 246.77-110.92 246.77-247.28S646.18 264.12 510.33 264.12 263.56 375.04 263.56 510.89c0 49.86 14.76 94.64 38.67 133.31l-3.05 22.39-5.6 44.78-4.58 34.6 35.62-6.11Zm185.71-523.56c162.82 0 294.6 131.78 294.6 294.6S673.15 806 510.33 806c-44.78 0-87.01-9.16-124.15-26.97L228.96 806l20.86-155.7-1.53-3.05c-20.86-40.2-32.56-86.5-32.56-136.36 0-162.82 131.27-294.6 294.6-294.6ZM405.52 376.56c16.28-10.68 26.97-3.05 33.07 13.23l14.76 39.18s10.69 20.86-16.28 41.72q-4.58 3.05-3.05 10.68c6.11 17.81 30.02 71.74 106.34 113.46 7.12 4.58 8.65 4.58 16.28-1.53l19.33-19.33c13.74-12.21 20.86-16.28 33.07-7.63 9.16 6.11 17.81 13.74 26.97 19.33 8.65 7.63 23.91 16.79 8.65 34.6l-13.23 16.28c-19.33 23.91-36.13 25.44-61.57 19.84-97.18-25.44-168.92-94.64-200.47-191.82-10.18-37.14 4.58-68.69 36.13-88.02Z" class="st2"/><path d="M386.22-545.91c54.53 0 103.74 22.24 139.57 57.87 35.83 35.83 57.87 85.24 57.87 139.76s-22.05 103.74-57.87 139.57c-35.83 35.83-85.04 57.87-139.57 57.87s-103.94-22.05-139.76-57.87c-35.63-35.83-57.87-85.04-57.87-139.57s22.24-103.94 57.87-139.76c35.83-35.63 85.24-57.87 139.76-57.87Zm132.48 64.96c-33.86-33.86-80.71-54.92-132.48-54.92s-98.82 21.06-132.68 54.92c-33.86 33.86-54.92 80.91-54.92 132.68s21.06 98.62 54.92 132.48c33.86 33.86 80.91 54.92 132.68 54.92s98.62-21.06 132.48-54.92c33.86-33.86 54.92-80.71 54.92-132.48s-21.06-98.82-54.92-132.68Z"/><path d="M359.65-212.24h49.21v-113.39h36.22l7.28-45.87h-43.5v-34.65c0-12.8 12.2-20.08 24.02-20.08h21.06v-37.99l-37.99-1.77c-36.22-2.17-56.3 26.38-56.3 60.43v34.06h-41.34v45.87h41.34v113.39Z" class="st3"/><path d="M905.32-545.91c54.53 0 103.94 22.24 139.76 57.87 35.63 35.83 57.87 85.24 57.87 139.76s-22.24 103.74-57.87 139.57c-35.83 35.83-85.24 57.87-139.76 57.87s-103.94-22.05-139.57-57.87c-35.83-35.83-57.87-85.04-57.87-139.57s22.05-103.94 57.87-139.76c35.63-35.63 85.04-57.87 139.57-57.87Zm132.67 64.96c-34.06-33.86-80.91-54.92-132.68-54.92s-98.62 21.06-132.48 54.92c-34.05 33.86-54.92 80.91-54.92 132.68s20.87 98.62 54.92 132.48c33.86 33.86 80.71 54.92 132.48 54.92s98.62-21.06 132.68-54.92c33.86-33.86 54.92-80.71 54.92-132.48s-21.06-98.82-54.92-132.68Z"/><path d="M852.95-443.35h104.92c23.62 0 42.91 19.29 42.91 42.91v104.33c0 23.62-19.29 42.91-42.91 42.91H852.95c-23.62 0-42.72-19.29-42.72-42.91v-104.33c0-23.62 19.09-42.91 42.72-42.91Zm52.37 53.94h.39c22.64 0 41.34 18.7 41.34 41.14 0 23.03-18.7 41.73-41.34 41.73h-.39c-22.64 0-41.34-18.7-41.34-41.73 0-22.44 18.7-41.14 41.34-41.14Zm0-21.46h.39c34.06 0 62.6 28.54 62.6 62.6 0 34.65-28.54 62.6-62.6 62.6h-.39c-34.25 0-62.2-27.95-62.2-62.6 0-34.06 27.95-62.6 62.2-62.6Zm62-12c7.09 0 13.19 5.91 13.19 13.19 0 7.09-6.1 13.19-13.19 13.19-7.68 0-13.19-6.1-13.19-13.19 0-7.28 5.51-13.19 13.19-13.19Zm-114.76-40.16h105.91c34.06 0 62.2 27.95 62.2 62.01v105.51c0 34.06-28.15 62.01-62.2 62.01H852.56c-34.06 0-62.2-27.95-62.2-62.01v-105.51c0-34.06 28.15-62.01 62.2-62.01Z" class="st3"/><path d="M1942.52-545.91c54.53 0 103.94 22.24 139.57 57.87 35.83 35.83 57.87 85.24 57.87 139.76s-22.05 103.74-57.87 139.57c-35.63 35.83-85.04 57.87-139.57 57.87s-103.94-22.05-139.57-57.87c-35.83-35.83-57.87-85.04-57.87-139.57s22.05-103.94 57.87-139.76c35.63-35.63 85.04-57.87 139.57-57.87Zm132.68 64.96c-34.06-33.86-80.91-54.92-132.68-54.92s-98.62 21.06-132.48 54.92c-34.06 33.86-54.92 80.91-54.92 132.68s20.87 98.62 54.92 132.48c33.86 33.86 80.71 54.92 132.48 54.92s98.62-21.06 132.68-54.92c33.86-33.86 54.92-80.71 54.92-132.48s-21.06-98.82-54.92-132.68Z"/><path d="M2015.35-417.17c-13.19-8.07-23.23-23.23-25.79-38.39-.39-3.54-.98-6.5-.98-10.04h-39.76v158.66c0 18.5-15.16 33.66-33.66 33.66-6.1 0-11.22-1.38-16.14-3.94-10.63-5.51-18.11-17.13-18.11-29.72 0-18.7 14.96-33.86 34.25-33.86 3.54 0 6.5.59 10.04 1.57v-40.35c-3.54-.39-6.5-.98-10.04-.98-40.94 0-74.02 32.87-74.02 73.62 0 24.61 12.6 46.85 31.69 59.84 12.01 8.07 26.57 13.19 42.32 13.19 40.75 0 73.43-32.87 73.43-73.03v-82.68c15.16 13.58 35.24 20.28 55.51 18.7v-39.76c-10.24 1.97-20.28-.98-28.74-6.5Z" class="st3"/><path d="M1425-545.91c54.53 0 103.94 22.24 139.57 57.87 35.83 35.83 57.87 85.24 57.87 139.76s-22.05 103.74-57.87 139.57c-35.63 35.83-85.04 57.87-139.57 57.87s-103.94-22.05-139.76-57.87c-35.63-35.83-57.68-85.04-57.68-139.57s22.05-103.94 57.68-139.76c35.83-35.63 85.24-57.87 139.76-57.87Zm132.48 64.96c-33.86-33.86-80.71-54.92-132.48-54.92s-98.62 21.06-132.68 54.92c-33.86 33.86-54.92 80.91-54.92 132.68s21.06 98.62 54.92 132.48c34.05 33.86 80.91 54.92 132.68 54.92s98.62-21.06 132.48-54.92c34.06-33.86 54.92-80.71 54.92-132.48s-20.87-98.82-54.92-132.68Z"/><path d="M1507.28-459.49h18.5l-80.51 93.9 87.8 128.35h-63.98l-59.45-86.81-74.41 86.81h-18.31l84.65-98.82-84.45-123.43h63.98l56.1 81.89 70.08-81.89Zm-163.97 14.17h28.94l134.65 193.9h-28.94l-134.65-193.9Z" class="st3"/></svg>