<svg xmlns="http://www.w3.org/2000/svg" id="Layer_1" version="1.1" viewBox="0 0 1020.67 1022.8"><defs><style>.st2{fill:#fff}.st2,.st3{fill-rule:evenodd}.st4{display:none}</style></defs><path d="M1425-49.65c54.53 0 103.94 22.05 139.57 57.87 35.83 35.63 57.87 85.04 57.87 139.57s-22.05 103.94-57.87 139.76c-35.63 35.63-85.04 57.68-139.57 57.68s-103.94-22.05-139.76-57.68c-35.63-35.83-57.68-85.24-57.68-139.76s22.05-103.94 57.68-139.57 85.24-57.87 139.76-57.87Zm132.48 64.96c-33.86-34.06-80.71-54.92-132.48-54.92s-98.62 20.87-132.68 54.92c-33.86 33.86-54.92 80.71-54.92 132.48s21.06 98.62 54.92 132.68c34.05 33.86 80.91 54.92 132.68 54.92s98.62-21.06 132.48-54.92c34.06-34.06 54.92-80.91 54.92-132.68s-20.87-98.62-54.92-132.48Z"/><path d="m1353.15 236.18 16.34-2.76 9.84-1.77c13.78 7.48 28.94 11.61 45.67 11.61 52.56 0 95.47-42.91 95.47-95.67s-42.91-95.47-95.47-95.47-95.47 42.91-95.47 95.47c0 19.29 5.71 36.61 14.96 51.57l-1.18 8.66-2.17 17.32-1.77 13.39 13.78-2.36ZM1425 33.62c62.99 0 113.98 50.98 113.98 113.98S1488 261.77 1425 261.77c-17.32 0-33.66-3.54-48.03-10.43l-60.83 10.43 8.07-60.24-.59-1.18c-8.07-15.55-12.6-33.46-12.6-52.76 0-62.99 50.79-113.98 113.98-113.98Zm-40.55 62.01c6.3-4.13 10.43-1.18 12.8 5.12l5.71 15.16s4.13 8.07-6.3 16.14q-1.77 1.18-1.18 4.13c2.36 6.89 11.61 27.76 41.14 43.9 2.76 1.77 3.35 1.77 6.3-.59l7.48-7.48c5.31-4.72 8.07-6.3 12.8-2.95 3.54 2.36 6.89 5.32 10.43 7.48 3.35 2.95 9.25 6.5 3.35 13.39l-5.12 6.3c-7.48 9.25-13.98 9.84-23.82 7.68-37.6-9.84-65.35-36.61-77.56-74.21-3.94-14.37 1.77-26.57 13.98-34.06Z" class="st3"/><circle cx="510.33" cy="511.4" r="510.33" style="fill:#1447e6"/><path d="M790.29 396.46c-9.15-65.6-42.21-76.79-108.32-82.39-56.96-4.58-121.54-6.61-171.38-6.61s-115.95 2.03-171.89 6.61c-65.6 5.59-100.19 16.78-109.34 82.39-3.56 30.51-5.59 71.71-5.59 113.92s2.03 84.93 5.59 113.92c9.15 66.62 43.74 76.79 109.34 82.39 55.94 5.59 121.54 6.61 171.89 6.61s114.42-1.02 171.38-6.61c66.11-5.59 99.17-15.77 108.32-82.39 4.58-28.99 6.61-71.71 6.61-113.92s-2.03-83.4-6.61-113.92ZM452.61 597.34V424.43l149.01 85.95-149.01 86.96Z" class="st2"/><path d="M386.22-545.91c54.53 0 103.74 22.24 139.57 57.87 35.83 35.83 57.87 85.24 57.87 139.76s-22.05 103.74-57.87 139.57c-35.83 35.83-85.04 57.87-139.57 57.87s-103.94-22.05-139.76-57.87c-35.63-35.83-57.87-85.04-57.87-139.57s22.24-103.94 57.87-139.76c35.83-35.63 85.24-57.87 139.76-57.87Zm132.48 64.96c-33.86-33.86-80.71-54.92-132.48-54.92s-98.82 21.06-132.68 54.92c-33.86 33.86-54.92 80.91-54.92 132.68s21.06 98.62 54.92 132.48c33.86 33.86 80.91 54.92 132.68 54.92s98.62-21.06 132.48-54.92c33.86-33.86 54.92-80.71 54.92-132.48s-21.06-98.82-54.92-132.68Z"/><path d="M359.65-212.24h49.21v-113.39h36.22l7.28-45.87h-43.5v-34.65c0-12.8 12.2-20.08 24.02-20.08h21.06v-37.99l-37.99-1.77c-36.22-2.17-56.3 26.38-56.3 60.43v34.06h-41.34v45.87h41.34v113.39Z" class="st3"/><path d="M905.32-545.91c54.53 0 103.94 22.24 139.76 57.87 35.63 35.83 57.87 85.24 57.87 139.76s-22.24 103.74-57.87 139.57c-35.83 35.83-85.24 57.87-139.76 57.87s-103.94-22.05-139.57-57.87c-35.83-35.83-57.87-85.04-57.87-139.57s22.05-103.94 57.87-139.76c35.63-35.63 85.04-57.87 139.57-57.87Zm132.67 64.96c-34.06-33.86-80.91-54.92-132.68-54.92s-98.62 21.06-132.48 54.92c-34.05 33.86-54.92 80.91-54.92 132.68s20.87 98.62 54.92 132.48c33.86 33.86 80.71 54.92 132.48 54.92s98.62-21.06 132.68-54.92c33.86-33.86 54.92-80.71 54.92-132.48s-21.06-98.82-54.92-132.68Z"/><path d="M852.95-443.35h104.92c23.62 0 42.91 19.29 42.91 42.91v104.33c0 23.62-19.29 42.91-42.91 42.91H852.95c-23.62 0-42.72-19.29-42.72-42.91v-104.33c0-23.62 19.09-42.91 42.72-42.91Zm52.37 53.94h.39c22.64 0 41.34 18.7 41.34 41.14 0 23.03-18.7 41.73-41.34 41.73h-.39c-22.64 0-41.34-18.7-41.34-41.73 0-22.44 18.7-41.14 41.34-41.14Zm0-21.46h.39c34.06 0 62.6 28.54 62.6 62.6 0 34.65-28.54 62.6-62.6 62.6h-.39c-34.25 0-62.2-27.95-62.2-62.6 0-34.06 27.95-62.6 62.2-62.6Zm62-12c7.09 0 13.19 5.91 13.19 13.19 0 7.09-6.1 13.19-13.19 13.19-7.68 0-13.19-6.1-13.19-13.19 0-7.28 5.51-13.19 13.19-13.19Zm-114.76-40.16h105.91c34.06 0 62.2 27.95 62.2 62.01v105.51c0 34.06-28.15 62.01-62.2 62.01H852.56c-34.06 0-62.2-27.95-62.2-62.01v-105.51c0-34.06 28.15-62.01 62.2-62.01Z" class="st3"/><path d="M1942.52-545.91c54.53 0 103.94 22.24 139.57 57.87 35.83 35.83 57.87 85.24 57.87 139.76s-22.05 103.74-57.87 139.57c-35.63 35.83-85.04 57.87-139.57 57.87s-103.94-22.05-139.57-57.87c-35.83-35.83-57.87-85.04-57.87-139.57s22.05-103.94 57.87-139.76c35.63-35.63 85.04-57.87 139.57-57.87Zm132.68 64.96c-34.06-33.86-80.91-54.92-132.68-54.92s-98.62 21.06-132.48 54.92c-34.06 33.86-54.92 80.91-54.92 132.68s20.87 98.62 54.92 132.48c33.86 33.86 80.71 54.92 132.48 54.92s98.62-21.06 132.68-54.92c33.86-33.86 54.92-80.71 54.92-132.48s-21.06-98.82-54.92-132.68Z"/><path d="M2015.35-417.17c-13.19-8.07-23.23-23.23-25.79-38.39-.39-3.54-.98-6.5-.98-10.04h-39.76v158.66c0 18.5-15.16 33.66-33.66 33.66-6.1 0-11.22-1.38-16.14-3.94-10.63-5.51-18.11-17.13-18.11-29.72 0-18.7 14.96-33.86 34.25-33.86 3.54 0 6.5.59 10.04 1.57v-40.35c-3.54-.39-6.5-.98-10.04-.98-40.94 0-74.02 32.87-74.02 73.62 0 24.61 12.6 46.85 31.69 59.84 12.01 8.07 26.57 13.19 42.32 13.19 40.75 0 73.43-32.87 73.43-73.03v-82.68c15.16 13.58 35.24 20.28 55.51 18.7v-39.76c-10.24 1.97-20.28-.98-28.74-6.5Z" class="st3"/><path d="M1425-545.91c54.53 0 103.94 22.24 139.57 57.87 35.83 35.83 57.87 85.24 57.87 139.76s-22.05 103.74-57.87 139.57c-35.63 35.83-85.04 57.87-139.57 57.87s-103.94-22.05-139.76-57.87c-35.63-35.83-57.68-85.04-57.68-139.57s22.05-103.94 57.68-139.76c35.83-35.63 85.24-57.87 139.76-57.87Zm132.48 64.96c-33.86-33.86-80.71-54.92-132.48-54.92s-98.62 21.06-132.68 54.92c-33.86 33.86-54.92 80.91-54.92 132.68s21.06 98.62 54.92 132.48c34.05 33.86 80.91 54.92 132.68 54.92s98.62-21.06 132.48-54.92c34.06-33.86 54.92-80.71 54.92-132.48s-20.87-98.82-54.92-132.68Z"/><path d="M1507.28-459.49h18.5l-80.51 93.9 87.8 128.35h-63.98l-59.45-86.81-74.41 86.81h-18.31l84.65-98.82-84.45-123.43h63.98l56.1 81.89 70.08-81.89Zm-163.97 14.17h28.94l134.65 193.9h-28.94l-134.65-193.9Z" class="st3"/></svg>